<svg xmlns="http://www.w3.org/2000/svg" viewBox="0 0 940.44 620.38"><defs><style>.cls-1{fill:none;stroke:#fff;stroke-miterlimit:10;stroke-width:4px;}</style></defs><g id="Calque_2" data-name="Calque 2"><g id="Calque_1-2" data-name="Calque 1"><polyline class="cls-1" points="573.97 299.62 615.79 312.04 615.8 369.01"/><path class="cls-1" d="M938.44,359,530.92,142.16c-143.17-69.95-317,2.06-317,2.06L2,233.4"/><path class="cls-1" d="M2,292.47l220.81-71.83s192.87-46.55,319.24,6.65S938.44,400.21,938.44,400.21"/><path class="cls-1" d="M197.92,49.08l39.52-20S303.81-10.73,421.05,6.18a128.2,128.2,0,0,1,32.05,9L516.77,42.4"/><path class="cls-1" d="M938.44,468.05S740.24,398.88,574,358.42s-363.13-10.08-363.13-10.08L2,390.42V72.21l79.81,35.6,79-39.95"/><polyline class="cls-1" points="160.79 240.81 160.79 319.55 160.79 358.42"/><line class="cls-1" x1="106.42" y1="258.5" x2="106.42" y2="369.38"/><line class="cls-1" x1="55.59" y1="275.04" x2="55.59" y2="379.62"/><polyline class="cls-1" points="419.67 452.09 419.67 594.42 330.55 618.36"/><path class="cls-1" d="M938.44,523.25,579.29,461.4c-262-23.94-409,0-409,0L49.89,477.09,2,482.68V390.42"/><polyline class="cls-1" points="241.43 454.99 241.43 618.36 160.79 618.36"/><polyline class="cls-1" points="330.55 452.09 330.55 618.36 241.43 618.36"/><polyline class="cls-1" points="49.89 477.09 49.89 618.36 160.79 618.36 160.79 464.14"/><polyline class="cls-1" points="569.98 162.94 569.98 31.32 489.73 48.16 489.73 70.67 548.33 58.81 548.33 151.42"/><line class="cls-1" x1="241.43" y1="216.7" x2="241.43" y2="344.52"/><line class="cls-1" x1="330.55" y1="204.38" x2="330.55" y2="338.19"/><line class="cls-1" x1="419.67" y1="202.51" x2="419.67" y2="338.3"/><line class="cls-1" x1="502.5" y1="214.21" x2="502.5" y2="344.52"/><line class="cls-1" x1="573.92" y1="240.82" x2="573.97" y2="358.42"/><polyline class="cls-1" points="680.05 221.51 680.05 142.16 626.18 150.14 626.18 128.53 697.01 118.55 697.01 230.53"/><line class="cls-1" x1="862.77" y1="240.98" x2="913.17" y2="270.4"/><line class="cls-1" x1="793.45" y1="200.51" x2="851.29" y2="234.28"/><line class="cls-1" x1="569.98" y1="72.21" x2="661.6" y2="123.54"/><polyline class="cls-1" points="852.29 313.92 850.64 245.91 812.9 249.35 812.9 237.27 862.62 233.4 864.32 319.55"/><polyline class="cls-1" points="864.32 270.4 928.46 270.4 928.46 353.67"/><rect class="cls-1" x="880.09" y="283.81" width="32.59" height="34.39"/><polyline class="cls-1" points="793.45 200.51 770.53 187.14 697.01 144.22"/><polyline class="cls-1" points="184.9 156.43 184.9 68.67 241.43 80.31 241.43 61.69 160.79 38.33 160.79 67.86 160.79 166.57"/><polyline class="cls-1" points="579.29 461.4 579.29 615.7 938.44 618.36 938.44 286.98 928.46 279.36"/><polyline class="cls-1" points="573.97 316.75 502.5 301.55 419.67 296.34 330.55 296.34 241.43 301"/><polyline class="cls-1" points="573.92 287.59 502.5 266.31 419.67 258.5 329.22 258.5 241.43 263.21"/><line class="cls-1" x1="106.42" y1="334.31" x2="160.79" y2="319.55"/><line class="cls-1" x1="106.42" y1="301" x2="160.79" y2="283.81"/><path class="cls-1" d="M184.9,120.88l46.78-19.66A174.68,174.68,0,0,1,256.38,93c35.07-8.88,126.37-26.82,215.25-1a161.9,161.9,0,0,1,30.31,12.36l46.39,24.53"/><line class="cls-1" x1="680.05" y1="203.26" x2="569.98" y2="141.47"/><line class="cls-1" x1="698" y1="212.3" x2="852.28" y2="299.09"/><line class="cls-1" x1="160.79" y1="132.19" x2="2" y2="200.51"/><line class="cls-1" x1="615.79" y1="312.04" x2="615.12" y2="258.5"/></g></g></svg>