<svg width="40" height="53" viewBox="0 0 40 53" fill="none" xmlns="http://www.w3.org/2000/svg">
<path fill-rule="evenodd" clip-rule="evenodd" d="M19.8931 0C27.5107 0 34.3556 4.17073 37.778 10.9207C40.7588 16.8475 40.7588 23.3779 37.6676 28.8657C34.8524 33.9694 22.4875 48.951 21.9355 49.6096L19.8931 52.1339L17.7954 49.6644L17.7334 49.5899C16.1401 47.6764 4.62125 33.8427 2.06333 28.8109C-0.255087 24.256 -0.641503 18.7682 1.01451 13.7195C2.72572 8.61582 6.20335 4.5 10.9506 2.14025C13.7658 0.713425 16.7466 0 19.8931 0ZM19.8931 47.9632C19.8931 47.9632 32.6443 32.5425 35.3492 27.6035C37.9988 22.7743 37.8884 17.1768 35.3492 12.1829C32.3131 6.2012 26.2411 2.74389 19.8931 2.74389C17.2986 2.74389 14.649 3.29266 12.165 4.55485C3.60894 8.78045 0.296931 19.4816 4.49216 27.6035C7.03138 32.5974 19.8931 47.9632 19.8931 47.9632ZM10.9507 19.8657C10.9507 14.9267 14.9803 10.9207 19.9484 10.9207C24.9164 10.9207 28.946 14.9267 28.946 19.8657C28.946 24.8047 24.9164 28.8108 19.9484 28.8108C14.9803 28.8108 10.9507 24.8047 10.9507 19.8657ZM13.6555 19.8657C13.6555 23.323 16.4708 26.1218 19.9484 26.1218C23.426 26.1218 26.2412 23.323 26.2412 19.8657C26.2412 16.4084 23.426 13.6096 19.9484 13.6096C16.4708 13.6096 13.6555 16.4084 13.6555 19.8657Z" fill="#F3B99A"/>
</svg>
