<svg width="65" height="65" viewBox="0 0 65 65" fill="none" xmlns="http://www.w3.org/2000/svg">
<path d="M33.0282 56.1927C45.8254 56.1927 56.1995 45.8186 56.1995 33.0214C56.1995 20.2242 45.8254 9.8501 33.0282 9.8501C20.2311 9.8501 9.85693 20.2242 9.85693 33.0214C9.85693 45.8186 20.2311 56.1927 33.0282 56.1927Z" fill="#EAE2DD"/>
<path d="M44.9851 24.1208C44.9851 22.877 43.7011 21.9541 41.0664 21.2988C38.9064 20.7571 36.0509 20.4629 33.0283 20.4629C30.0057 20.4629 27.1502 20.7571 24.9902 21.2988C22.3555 21.9608 21.0715 22.8837 21.0715 24.1208C21.0715 24.5822 21.2454 24.9968 21.5998 25.3713L29.7382 35.2417V44.6908C29.7382 44.9984 29.8987 45.2859 30.1595 45.4531C30.3066 45.5401 30.4671 45.5869 30.6343 45.5869C30.768 45.5869 30.9084 45.5534 31.0288 45.4932L35.8102 43.126C36.1111 42.9722 36.305 42.6645 36.305 42.3235L36.3117 35.2417L44.4501 25.3713C44.8112 24.9968 44.9851 24.5822 44.9851 24.1208ZM25.8261 22.9372C27.7989 22.4958 30.3534 22.2484 33.0283 22.2484C35.7032 22.2484 38.2577 22.4958 40.2304 22.9372C42.4038 23.4253 43.019 23.9536 43.1661 24.1208C43.019 24.288 42.4105 24.8163 40.2304 25.3045C38.2577 25.7458 35.7032 25.9932 33.0283 25.9932C30.3534 25.9932 27.7989 25.7458 25.8261 25.3045C23.6528 24.8163 23.0376 24.288 22.8904 24.1208C23.0376 23.9536 23.6461 23.432 25.8261 22.9372ZM34.7335 34.3523C34.5998 34.5128 34.5262 34.7134 34.5262 34.9207L34.5195 41.7684L31.5303 43.253V34.9207C31.5303 34.7134 31.4568 34.5128 31.323 34.3523L25.2711 27.0164C27.3909 27.5112 30.1327 27.7854 33.0283 27.7854C35.9239 27.7854 38.6589 27.5112 40.7855 27.0164L34.7335 34.3523Z" fill="#22242C"/>
</svg>
