<svg width="53" height="27" viewBox="0 0 53 27" fill="none" xmlns="http://www.w3.org/2000/svg">
<path d="M44.3721 0.469971C39.6083 0.469971 35.7442 4.3514 35.7442 9.13664C35.5347 9.13664 35.3313 9.15521 35.1279 9.16759C35.1279 9.15521 35.1279 9.14902 35.1279 9.13664C35.1279 4.3514 31.2638 0.469971 26.5 0.469971C21.7362 0.469971 17.8721 4.3514 17.8721 9.13664C17.6626 9.13664 17.4592 9.15521 17.2558 9.16759C17.2558 9.15521 17.2558 9.14902 17.2558 9.13664C17.2558 4.3514 13.3917 0.469971 8.62791 0.469971C3.86407 0.469971 0 4.3514 0 9.13664C0 13.9219 3.86407 17.8033 8.62791 17.8033C8.83744 17.8033 9.04081 17.7847 9.24419 17.7724C9.24419 17.7847 9.24419 17.7909 9.24419 17.8033C9.24419 22.5885 13.1083 26.47 17.8721 26.47C22.6359 26.47 26.5 22.5885 26.5 17.8033C26.7095 17.8033 26.9129 17.7847 27.1163 17.7724C27.1163 17.7847 27.1163 17.7909 27.1163 17.8033C27.1163 22.5885 30.9803 26.47 35.7442 26.47C40.508 26.47 44.3721 22.5885 44.3721 17.8033C49.1359 17.8033 53 13.9219 53 9.13664C53 4.3514 49.1359 0.469971 44.3721 0.469971ZM8.62791 16.2557C4.7207 16.2557 1.5407 13.0614 1.5407 9.13664C1.5407 5.21188 4.7207 2.01759 8.62791 2.01759C12.5351 2.01759 15.7151 5.21188 15.7151 9.13664C15.7151 9.23569 15.7028 9.32854 15.7028 9.4214C12.492 10.2571 10.0084 12.9004 9.39826 16.2062C9.14558 16.2371 8.88674 16.2557 8.62791 16.2557ZM15.4255 11.13C14.7969 13.2966 13.1637 15.0362 11.0684 15.81C11.7031 13.6433 13.3363 11.9038 15.4255 11.13ZM24.9593 17.8033C24.9593 21.7281 21.7793 24.9224 17.8721 24.9224C13.9649 24.9224 10.7849 21.7281 10.7849 17.8033C10.7849 17.7043 10.7972 17.6114 10.7972 17.5185C14.008 16.6828 16.4916 14.0395 17.1017 10.7338C17.3544 10.709 17.6071 10.6904 17.8721 10.6904C17.9214 10.6904 17.9707 10.6966 18.02 10.6966C18.6609 14.2314 21.4342 17.0171 24.9531 17.6609C24.9531 17.7043 24.9593 17.7538 24.9593 17.8033ZM19.647 10.9195C22.1306 11.5633 24.0842 13.5257 24.7251 16.0204C22.2415 15.3766 20.2879 13.4143 19.647 10.9195ZM26.5 16.2557C26.4507 16.2557 26.4014 16.2495 26.3521 16.2495C25.7112 12.7147 22.9379 9.92902 19.419 9.28521C19.419 9.23569 19.4128 9.18616 19.4128 9.13664C19.4128 5.21188 22.5928 2.01759 26.5 2.01759C30.4072 2.01759 33.5872 5.21188 33.5872 9.13664C33.5872 9.23569 33.5749 9.32854 33.5749 9.4214C30.3641 10.2571 27.8805 12.9004 27.2703 16.2062C27.0177 16.2371 26.7588 16.2557 26.5 16.2557ZM33.2976 11.13C32.669 13.2966 31.0358 15.0362 28.9405 15.81C29.5752 13.6433 31.2084 11.9038 33.2976 11.13ZM42.8314 17.8033C42.8314 21.7281 39.6514 24.9224 35.7442 24.9224C31.837 24.9224 28.657 21.7281 28.657 17.8033C28.657 17.7043 28.6693 17.6114 28.6693 17.5185C31.8801 16.6828 34.3637 14.0395 34.9738 10.7338C35.2265 10.709 35.4792 10.6904 35.7442 10.6904C35.7935 10.6904 35.8428 10.6966 35.8921 10.6966C36.533 14.2314 39.3063 17.0171 42.8252 17.6609C42.8252 17.7043 42.8314 17.7538 42.8314 17.8033ZM37.5191 10.9195C40.0027 11.5633 41.9563 13.5257 42.5972 16.0204C40.1136 15.3766 38.16 13.4143 37.5191 10.9195ZM44.3721 16.2557C44.3228 16.2557 44.2735 16.2495 44.2242 16.2495C43.5833 12.7147 40.81 9.92902 37.291 9.28521C37.291 9.23569 37.2849 9.18616 37.2849 9.13664C37.2849 5.21188 40.4649 2.01759 44.3721 2.01759C48.2793 2.01759 51.4593 5.21188 51.4593 9.13664C51.4593 13.0614 48.2793 16.2557 44.3721 16.2557Z" fill="#EAE2DD"/>
</svg>
