<svg width="63" height="63" viewBox="0 0 63 63" fill="none" xmlns="http://www.w3.org/2000/svg">
<path d="M31.4948 62.9625C14.1333 62.9625 0 48.8292 0 31.4948C0 14.1333 14.1333 0 31.4948 0C48.8563 0 62.9897 14.1333 62.9897 31.4948C62.9625 48.8292 48.8292 62.9625 31.4948 62.9625ZM31.4948 2.46859C15.4897 2.46859 2.46859 15.4897 2.46859 31.4948C2.46859 47.5 15.4897 60.5211 31.4948 60.5211C47.5 60.5211 60.5211 47.5 60.5211 31.4948C60.4939 15.4897 47.4728 2.46859 31.4948 2.46859Z" fill="#EAE2DD"/>
<path d="M27.6967 21.1866H22V41.6135H27.6967V21.1866Z" fill="#EAE2DD"/>
<path d="M40.9575 21.1866H35.2607V41.6135H40.9575V21.1866Z" fill="#EAE2DD"/>
</svg>
