<?xml version="1.0" encoding="utf-8"?>
<!-- Generator: Adobe Illustrator 23.0.6, SVG Export Plug-In . SVG Version: 6.00 Build 0)  -->
<svg version="1.1" id="Calque_1" xmlns="http://www.w3.org/2000/svg" xmlns:xlink="http://www.w3.org/1999/xlink" x="0px" y="0px"
	 width="29px" height="38px" viewBox="0 0 29 38" enable-background="new 0 0 29 38" xml:space="preserve">
<path fill-rule="evenodd" clip-rule="evenodd" fill="#AED6C7" d="M14.4225,0c5.5228,0,10.4853,3.04,12.9665,7.96
	c2.1611,4.32,2.1611,9.08-0.08,13.08c-2.041,3.72-11.0056,14.64-11.4058,15.12L14.4225,38l-1.5208-1.8l-0.0451-0.0544
	C11.7013,34.7506,3.3504,24.6676,1.4959,21c-1.6808-3.32-1.961-7.32-0.7604-11c1.2406-3.72,3.7619-6.72,7.2037-8.44
	C9.9802,0.52,12.1413,0,14.4225,0z M14.4225,34.96c0,0,9.2447-11.24,11.2056-14.84c1.921-3.52,1.841-7.6,0-11.24
	C23.427,4.52,19.0248,2,14.4225,2c-1.881,0-3.802,0.4-5.6029,1.32C2.6165,6.4,0.2153,14.2,3.2568,20.12
	C5.0978,23.76,14.4225,34.96,14.4225,34.96z M7.9392,14.48c0-3.6,2.9215-6.52,6.5233-6.52s6.5233,2.92,6.5233,6.52
	S18.0643,21,14.4625,21S7.9392,18.08,7.9392,14.48z M9.9002,14.48c0,2.52,2.041,4.56,4.5623,4.56s4.5623-2.04,4.5623-4.56
	s-2.041-4.56-4.5623-4.56S9.9002,11.96,9.9002,14.48z"/>
</svg>
